<?xml version="1.0" encoding="utf-8"?>
<!-- Generator: Adobe Illustrator 24.0.1, SVG Export Plug-In . SVG Version: 6.00 Build 0)  -->
<svg version="1.1" id="Capa_1" xmlns="http://www.w3.org/2000/svg" xmlns:xlink="http://www.w3.org/1999/xlink" x="0px" y="0px"
	 viewBox="0 0 150 150" style="enable-background:new 0 0 150 150;" xml:space="preserve">
<style type="text/css">
	.st0{clip-path:url(#SVGID_2_);}
	.st1{fill:url(#SVGID_3_);}
	.st2{fill:#FFFFFF;}
	.st3{clip-path:url(#SVGID_5_);}
	.st4{fill:url(#a_1_);}
	.st5{clip-path:url(#SVGID_7_);}
	.st6{fill:#1976D2;}
	.st7{fill-rule:evenodd;clip-rule:evenodd;fill:#FAFAFA;}
	.st8{clip-path:url(#SVGID_9_);fill:#2DAAE1;}
	.st9{clip-path:url(#SVGID_9_);}
	.st10{clip-path:url(#SVGID_11_);}
	.st11{fill:url(#SVGID_12_);}
	.st12{clip-path:url(#SVGID_14_);fill:url(#SVGID_15_);}
	.st13{clip-path:url(#SVGID_14_);}
	.st14{fill:#C8DAEA;}
	.st15{fill:#A9C9DD;}
	.st16{fill:url(#SVGID_16_);}
</style>
<g>
	<defs>
		<rect id="SVGID_6_" width="150" height="150"/>
	</defs>
	<clipPath id="SVGID_2_">
		<use xlink:href="#SVGID_6_"  style="overflow:visible;"/>
	</clipPath>
	<g class="st0">
		<path class="st6" d="M135-14H22c-9.66,0-27-2.66-27,7l3,115c0,9.66-4.66,54,5,54l121,3c9.66,0,32,7.66,32-2V14
			C156,4.34,144.66-14,135-14z"/>
		<path class="st7" d="M123,75h-22V58.38c0-2.42,1.96-4.38,4.38-4.38H119V32h-17.75C86.75,32,75,43.75,75,58.25V75H57v22h18v48h26
			V97h13.2L123,75z"/>
	</g>
</g>
</svg>
