<?xml version="1.0" encoding="utf-8"?>
<!-- Generator: Adobe Illustrator 24.0.1, SVG Export Plug-In . SVG Version: 6.00 Build 0)  -->
<svg version="1.1" id="Capa_1" xmlns="http://www.w3.org/2000/svg" xmlns:xlink="http://www.w3.org/1999/xlink" x="0px" y="0px"
	 viewBox="0 0 150 150" style="enable-background:new 0 0 150 150;" xml:space="preserve">
<style type="text/css">
	.st0{clip-path:url(#SVGID_2_);}
	.st1{fill:url(#SVGID_3_);}
	.st2{fill:#FFFFFF;}
	.st3{clip-path:url(#SVGID_5_);}
	.st4{fill:url(#a_1_);}
	.st5{clip-path:url(#SVGID_7_);}
	.st6{fill:#1976D2;}
	.st7{fill-rule:evenodd;clip-rule:evenodd;fill:#FAFAFA;}
	.st8{clip-path:url(#SVGID_9_);fill:#2DAAE1;}
	.st9{clip-path:url(#SVGID_9_);}
	.st10{clip-path:url(#SVGID_11_);}
	.st11{fill:url(#SVGID_12_);}
	.st12{clip-path:url(#SVGID_14_);fill:url(#SVGID_15_);}
	.st13{clip-path:url(#SVGID_14_);}
	.st14{fill:#C8DAEA;}
	.st15{fill:#A9C9DD;}
	.st16{fill:url(#SVGID_16_);}
</style>
<g>
	<defs>
		<rect id="SVGID_1_" width="150" height="150"/>
	</defs>
	<clipPath id="SVGID_2_">
		<use xlink:href="#SVGID_1_"  style="overflow:visible;"/>
	</clipPath>
	<g class="st0">
		<g>
			<g>
				
					<linearGradient id="SVGID_3_" gradientUnits="userSpaceOnUse" x1="-631.1119" y1="-197.866" x2="-418.5939" y2="11.5268" gradientTransform="matrix(1 0 0 -1 606 -21)">
					<stop  offset="0" style="stop-color:#FED576"/>
					<stop  offset="0.26" style="stop-color:#F47133"/>
					<stop  offset="0.61" style="stop-color:#BC3081"/>
					<stop  offset="1" style="stop-color:#4C63D2"/>
				</linearGradient>
				<path class="st1" d="M31-7l84,2c18.59,0,41-8.59,41,10v111c0,18.59,8.59,46-10,46l-110-6c-18.59,0-42,7.59-42-11V6
					C-6-12.59,12.41-7,31-7z"/>
				<g>
					<path class="st2" d="M52.06,26h46.91c1.04,0.52,2.61,0.52,3.65,1.04c9.33,1.51,17,8.17,19.81,17.2
						c0.77,2.55,1.29,5.17,1.56,7.82v45.87c-0.75,5.81-2.89,11.36-6.26,16.16c-5.85,6.78-14.52,10.44-23.46,9.9h-39.1
						c-6.98,0.34-13.84-1.89-19.29-6.26c-6.72-5.8-10.37-14.39-9.9-23.25V58.01c-0.09-2.62,0.09-5.24,0.52-7.82
						c1.08-10.96,9.06-20,19.81-22.41L52.06,26z M36,75.34V95.6c-0.84,9.78,6.41,18.38,16.18,19.22c1.01,0.09,2.03,0.09,3.04,0
						c13.51,0.52,27.02,0.52,40.53,0c11.95,0,18.7-7.27,19.22-19.22c0.52-13.51,0.52-27.02,0-40.53
						c0.53-10.09-7.22-18.69-17.3-19.22c-0.64-0.03-1.28-0.03-1.92,0c-13.51-0.52-27.02-0.52-40.53,0
						C45.45,35.01,36.84,42.26,36,52.03c-0.09,1.01-0.09,2.03,0,3.04L36,75.34z"/>
					<path class="st2" d="M50.09,75.55C50.12,61.5,61.5,50.12,75.55,50.09C89.49,50.36,100.73,61.6,101,75.55
						c-0.03,14.05-11.41,25.43-25.46,25.46C61.6,100.73,50.36,89.49,50.09,75.55z M75.55,59.44c-8.75-0.14-15.96,6.84-16.1,15.59
						c-0.14,8.75,6.84,15.96,15.59,16.1s15.96-6.84,16.1-15.59c0-0.17,0-0.34,0-0.52C91.13,66.42,84.15,59.44,75.55,59.44z"/>
					<path class="st2" d="M95.29,49.05c-0.12-3.33,2.49-6.12,5.81-6.23c0.14,0,0.28,0,0.42,0c3.35,0.23,6.01,2.89,6.23,6.23
						c0,3.44-2.8,6.23-6.24,6.23C98.08,55.28,95.29,52.49,95.29,49.05z"/>
				</g>
			</g>
		</g>
	</g>
</g>
</svg>
