<?xml version="1.0" encoding="utf-8"?>
<!-- Generator: Adobe Illustrator 24.0.1, SVG Export Plug-In . SVG Version: 6.00 Build 0)  -->
<svg version="1.1" id="Capa_1" xmlns="http://www.w3.org/2000/svg" xmlns:xlink="http://www.w3.org/1999/xlink" x="0px" y="0px"
	 viewBox="0 0 150 150" style="enable-background:new 0 0 150 150;" xml:space="preserve">
<style type="text/css">
	.st0{clip-path:url(#SVGID_2_);}
	.st1{fill:url(#SVGID_3_);}
	.st2{fill:#FFFFFF;}
	.st3{clip-path:url(#SVGID_5_);}
	.st4{fill:url(#a_1_);}
	.st5{clip-path:url(#SVGID_7_);}
	.st6{fill:#1976D2;}
	.st7{fill-rule:evenodd;clip-rule:evenodd;fill:#FAFAFA;}
	.st8{clip-path:url(#SVGID_9_);fill:#2DAAE1;}
	.st9{clip-path:url(#SVGID_9_);}
	.st10{clip-path:url(#SVGID_11_);}
	.st11{fill:url(#SVGID_12_);}
	.st12{clip-path:url(#SVGID_14_);fill:url(#SVGID_15_);}
	.st13{clip-path:url(#SVGID_14_);}
	.st14{fill:#C8DAEA;}
	.st15{fill:#A9C9DD;}
	.st16{fill:url(#SVGID_16_);}
</style>
<g>
	<defs>
		<rect id="SVGID_10_" width="150" height="150"/>
	</defs>
	<clipPath id="SVGID_2_">
		<use xlink:href="#SVGID_10_"  style="overflow:visible;"/>
	</clipPath>
	<g class="st0">
		
			<linearGradient id="SVGID_3_" gradientUnits="userSpaceOnUse" x1="-1137.7985" y1="-1119.0713" x2="-1104.8801" y2="-1151.9896" gradientTransform="matrix(5.0206 0 0 -5.0206 5695.5752 -5612.5469)">
			<stop  offset="0" style="stop-color:#2489BE"/>
			<stop  offset="1" style="stop-color:#0575B3"/>
		</linearGradient>
		<path class="st1" d="M75-19C43.83,5.09-9-31.4-9,8s-1.4,230,38,230s156-49,132-158C161,40.6,163-87,75-19z M56,111H40V60h16V111z
			 M48.39,53.93c-5.11,0-9.26-4.18-9.26-9.34c0-5.16,4.15-9.34,9.26-9.34s9.26,4.18,9.26,9.34C57.66,49.75,53.51,53.93,48.39,53.93z
			 M115,111H99V84.44c0-7.28-2.76-11.35-8.49-11.35c-6.24,0-9.51,4.24-9.51,11.35V111H66V60h15v6.87c0,0,4.56-8.42,15.4-8.42
			c10.84,0,18.6,6.6,18.6,20.26L115,111L115,111z"/>
	</g>
</g>
</svg>
