<?xml version="1.0" encoding="utf-8"?>
<!-- Generator: Adobe Illustrator 24.0.1, SVG Export Plug-In . SVG Version: 6.00 Build 0)  -->
<svg version="1.1" id="Capa_1" xmlns="http://www.w3.org/2000/svg" xmlns:xlink="http://www.w3.org/1999/xlink" x="0px" y="0px"
	 viewBox="0 0 150 150" style="enable-background:new 0 0 150 150;" xml:space="preserve">
<style type="text/css">
	.st0{clip-path:url(#SVGID_2_);}
	.st1{fill:url(#SVGID_3_);}
	.st2{fill:#FFFFFF;}
	.st3{clip-path:url(#SVGID_5_);}
	.st4{fill:url(#a_1_);}
	.st5{clip-path:url(#SVGID_7_);}
	.st6{fill:#1976D2;}
	.st7{fill-rule:evenodd;clip-rule:evenodd;fill:#FAFAFA;}
	.st8{clip-path:url(#SVGID_9_);fill:#2DAAE1;}
	.st9{clip-path:url(#SVGID_9_);}
	.st10{clip-path:url(#SVGID_11_);}
	.st11{fill:url(#SVGID_12_);}
	.st12{clip-path:url(#SVGID_14_);fill:url(#SVGID_15_);}
	.st13{clip-path:url(#SVGID_14_);}
	.st14{fill:#C8DAEA;}
	.st15{fill:#A9C9DD;}
	.st16{fill:url(#SVGID_16_);}
</style>
<g>
	<defs>
		<rect id="SVGID_13_" width="150" height="150"/>
	</defs>
	<clipPath id="SVGID_2_">
		<use xlink:href="#SVGID_13_"  style="overflow:visible;"/>
	</clipPath>
	<linearGradient id="SVGID_3_" gradientUnits="userSpaceOnUse" x1="103.8559" y1="7.6706" x2="54.6317" y2="122.5254">
		<stop  offset="0" style="stop-color:#37AEE2"/>
		<stop  offset="1" style="stop-color:#1E96C8"/>
	</linearGradient>
	<rect style="clip-path:url(#SVGID_2_);fill:url(#SVGID_3_);" width="150" height="150"/>
	<g class="st0">
		<path class="st14" d="M60.43,107.92c-2.41,0-1.97-0.92-2.84-3.21l-7.03-23.19l43.66-27.26l5.12,1.36l-4.25,11.59L60.43,107.92z"/>
		<path class="st15" d="M60,107.92c1.85,0,2.65-0.86,3.7-1.85c1.6-1.54,22.2-21.58,22.2-21.58L73.26,81.4l-11.72,7.4L60,107.3
			V107.92z"/>
		
			<linearGradient id="SVGID_5_" gradientUnits="userSpaceOnUse" x1="-50.5387" y1="-68.2583" x2="-49.0587" y2="-65.8903" gradientTransform="matrix(10.4167 0 0 10.4167 606 787.3334)">
			<stop  offset="0" style="stop-color:#EFF7FC"/>
			<stop  offset="1" style="stop-color:#FFFFFF"/>
		</linearGradient>
		<path style="fill:url(#SVGID_5_);" d="M61.67,89.05l29.85,22.01c3.39,1.85,5.86,0.93,6.72-3.15l12.15-57.23
			c1.23-4.99-1.91-7.22-5.18-5.74l-71.29,27.5c-4.87,1.97-4.81,4.69-0.86,5.86l18.32,5.74l42.36-26.7c1.97-1.23,3.82-0.56,2.34,0.8
			L61.67,89.05z"/>
	</g>
</g>
</svg>
