<?xml version="1.0" encoding="utf-8"?>
<!-- Generator: Adobe Illustrator 24.0.1, SVG Export Plug-In . SVG Version: 6.00 Build 0)  -->
<svg version="1.1" id="Capa_1" xmlns="http://www.w3.org/2000/svg" xmlns:xlink="http://www.w3.org/1999/xlink" x="0px" y="0px"
	 viewBox="0 0 150 150" style="enable-background:new 0 0 150 150;" xml:space="preserve">
<style type="text/css">
	.st0{clip-path:url(#SVGID_2_);}
	.st1{fill:url(#SVGID_3_);}
	.st2{fill:#FFFFFF;}
	.st3{clip-path:url(#SVGID_5_);}
	.st4{fill:url(#a_1_);}
	.st5{clip-path:url(#SVGID_7_);}
	.st6{fill:#1976D2;}
	.st7{fill-rule:evenodd;clip-rule:evenodd;fill:#FAFAFA;}
	.st8{clip-path:url(#SVGID_9_);fill:#2DAAE1;}
	.st9{clip-path:url(#SVGID_9_);}
	.st10{clip-path:url(#SVGID_11_);}
	.st11{fill:url(#SVGID_12_);}
	.st12{clip-path:url(#SVGID_14_);fill:url(#SVGID_15_);}
	.st13{clip-path:url(#SVGID_14_);}
	.st14{fill:#C8DAEA;}
	.st15{fill:#A9C9DD;}
	.st16{fill:url(#SVGID_16_);}
</style>
<g>
	<defs>
		<rect id="SVGID_8_" width="150" height="150"/>
	</defs>
	<clipPath id="SVGID_2_">
		<use xlink:href="#SVGID_8_"  style="overflow:visible;"/>
	</clipPath>
	<rect style="clip-path:url(#SVGID_2_);fill:#2DAAE1;" width="150" height="150"/>
	<g class="st0">
		<path class="st2" d="M122.23,46.66c-3.42,1.52-7.09,2.54-10.95,3c3.94-2.36,6.96-6.1,8.39-10.55c-3.74,2.22-7.84,3.79-12.11,4.63
			c-3.87-4.13-9.58-6.53-15.8-5.93C82.49,38.7,75.1,46.4,74.59,55.69c-0.1,1.88,0.06,3.71,0.46,5.46
			c-15.85-0.8-29.9-8.39-39.31-19.93c-1.64,2.82-2.58,6.09-2.58,9.59c0,6.62,3.37,12.45,8.48,15.87c-3.03-0.09-5.99-0.91-8.64-2.38
			v0.24c0,9.24,6.57,16.95,15.3,18.7c-1.6,0.44-3.29,0.67-5.03,0.67c-1.23,0-2.42-0.12-3.59-0.34c2.43,7.57,9.47,13.09,17.81,13.24
			c-6.53,5.12-14.75,8.17-23.69,8.17c-1.54,0-3.06-0.09-4.55-0.27c8.44,5.41,18.46,8.57,29.24,8.57c35.08,0,54.26-29.06,54.26-54.26
			c0-0.83-0.02-1.65-0.06-2.47C116.44,53.84,119.67,50.5,122.23,46.66L122.23,46.66z"/>
	</g>
</g>
</svg>
