<?xml version="1.0" encoding="utf-8"?>
<!-- Generator: Adobe Illustrator 24.0.1, SVG Export Plug-In . SVG Version: 6.00 Build 0)  -->
<svg version="1.1" id="Capa_1" xmlns="http://www.w3.org/2000/svg" xmlns:xlink="http://www.w3.org/1999/xlink" x="0px" y="0px"
	 viewBox="0 0 150 150" style="enable-background:new 0 0 150 150;" xml:space="preserve">
<style type="text/css">
	.st0{clip-path:url(#SVGID_2_);}
	.st1{fill:url(#SVGID_3_);}
	.st2{fill:#FFFFFF;}
	.st3{clip-path:url(#SVGID_5_);}
	.st4{fill:url(#a_1_);}
	.st5{clip-path:url(#SVGID_7_);}
	.st6{fill:#1976D2;}
	.st7{fill-rule:evenodd;clip-rule:evenodd;fill:#FAFAFA;}
	.st8{clip-path:url(#SVGID_9_);fill:#2DAAE1;}
	.st9{clip-path:url(#SVGID_9_);}
	.st10{clip-path:url(#SVGID_11_);}
	.st11{fill:url(#SVGID_12_);}
	.st12{clip-path:url(#SVGID_14_);fill:url(#SVGID_15_);}
	.st13{clip-path:url(#SVGID_14_);}
	.st14{fill:#C8DAEA;}
	.st15{fill:#A9C9DD;}
	.st16{fill:url(#SVGID_16_);}
</style>
<g>
	<defs>
		<rect id="SVGID_4_" width="150" height="150"/>
	</defs>
	<clipPath id="SVGID_2_">
		<use xlink:href="#SVGID_4_"  style="overflow:visible;"/>
	</clipPath>
	<g class="st0">
		<g>
			
				<linearGradient id="a_1_" gradientUnits="userSpaceOnUse" x1="58.4169" y1="90.1962" x2="58.4169" y2="4.7488" gradientTransform="matrix(2.4414 0 0 -2.4414 -64 195.2109)">
				<stop  offset="0" style="stop-color:#61FD7D"/>
				<stop  offset="1" style="stop-color:#2BB826"/>
			</linearGradient>
			<path id="a_2_" class="st4" d="M160,101c-0.96,0.77-2.95,11.72-3,13c-0.11,3.14,4.38,0.15,4,2c11.67,1.32,6.12,15.87-3,19
				c-1.32,2.58,2-1.99,0,0c-1.99,1.99,5.58,18.69,3,20c-2.19,1.12-8.21,12.44-11,13c-1.83,0.37-11.88,2.89-15,3
				c17.78,16.73-9,12-9,12H80c-0.77,0-28.72-8.95-30-9c19.19,21.08-9.15-15.62-11-16c-2.78-0.57-2.82,22.11-5,21
				c-2.58-1.32-12.01-17-14-19c-1.99-1.99,0.31-0.42-1-3c-1.12-2.19-12.44,3.79-13,1c-0.37-1.83-10.89,0.12-11-3
				c-9.07,27.83,0-30.24,0-31V59c0-0.77-0.05-12.72,0-14c0.11-3.14-0.38-5.15,0-7c0.57-2.78,1.89-15.82,3-18c1.32-2.58-3-16.01-1-18
				c-11.68-21.88-8.59-21.8,3-10c2.19-1.12,10.21-5.44,13-6c-22.85-24.79,8.88,0.11,12,0c1.29-0.05,8.24,6,9,6l75-8
				c0,0,12.77-5.42,8,8c3.14,0.11,7.15-6.38,9-6c2.78,0.57,16.82,5.89,19,7c2.58,1.32,3.01,8,5,10c1.99,1.99,2.69,20.42,4,23
				c1.12,2.19,4.44,15.21,5,18c0.34,1.69,4.32,24.77-2.91,14.39c-1.17-1.67,1.89,0.11-0.09-0.39c-0.68-0.17-3,8,7.52-15.21l-5,54.81
				L160,101z"/>
		</g>
		<path class="st2" d="M111.14,38.31c-9.48-9.49-22.08-14.71-35.51-14.72c-27.67,0-50.19,22.51-50.2,50.18
			c0,8.85,2.31,17.48,6.7,25.09L25,124.87l26.61-6.98c7.33,4,15.59,6.11,23.99,6.11h0.02c27.67,0,50.19-22.51,50.2-50.19
			C125.83,60.4,120.62,47.79,111.14,38.31L111.14,38.31z M75.63,116h-0.02c-7.49,0-14.83-2.01-21.24-5.81l-1.52-0.9l-15.79,4.14
			l4.22-15.39l-0.99-1.58c-4.18-6.64-6.38-14.32-6.38-22.2c0.01-23,18.73-41.71,41.74-41.71c12.22,0,23.63,5.23,31.7,14.61
			c5.62,6.53,9.07,14.72,9.84,23.3C119.39,95.17,99.89,116,75.63,116L75.63,116z M98.51,84.43c-1.25-0.63-7.42-3.66-8.57-4.08
			c-1.15-0.42-1.99-0.63-2.82,0.63c-0.84,1.26-3.24,4.08-3.97,4.92c-0.73,0.84-1.46,0.94-2.72,0.31c-1.25-0.63-5.3-1.95-10.09-6.22
			c-3.73-3.32-6.25-7.43-6.98-8.69c-0.73-1.26-0.08-1.93,0.55-2.56c0.56-0.56,1.25-1.46,1.88-2.2c0.63-0.73,0.84-1.26,1.25-2.09
			c0.42-0.84,0.21-1.57-0.1-2.2c-0.31-0.63-2.82-6.8-3.87-9.31c-1.02-2.45-2.05-2.11-2.82-2.15c-0.73-0.04-1.57-0.04-2.4-0.04
			s-2.2,0.31-3.34,1.57c-1.15,1.26-4.39,4.29-4.39,10.46s4.49,12.14,5.12,12.97c0.63,0.84,8.85,13.5,21.43,18.94
			c2.99,1.29,5.33,2.06,7.15,2.64c3,0.95,5.74,0.82,7.9,0.5c2.41-0.36,7.42-3.03,8.47-5.96c1.05-2.93,1.05-5.44,0.73-5.96
			C100.6,85.38,99.77,85.06,98.51,84.43L98.51,84.43z"/>
	</g>
</g>
</svg>
