<?xml version="1.0" encoding="utf-8"?>
<!-- Generator: Adobe Illustrator 24.0.1, SVG Export Plug-In . SVG Version: 6.00 Build 0)  -->
<svg version="1.1" id="Capa_1" xmlns="http://www.w3.org/2000/svg" xmlns:xlink="http://www.w3.org/1999/xlink" x="0px" y="0px"
	 viewBox="0 0 913 497" style="enable-background:new 0 0 913 497;" xml:space="preserve">
<style type="text/css">
	.st0{fill:#98C73A;}
	.st1{fill:#388D9B;}
</style>
<g>
	<path class="st0" d="M422.55,233.64l62.97-102.7h50.11L429.59,336.93h-45.1l-32.17-205.98h47.68L422.55,233.64z"/>
	<path class="st0" d="M571.84,339.76c-11.96-0.19-22.77-2.19-32.41-6.01c-9.65-3.82-17.78-9.01-24.41-15.56
		c-6.63-6.55-11.5-14.26-14.63-23.13c-3.13-8.86-4.15-18.48-3.07-28.86l0.65-5.8c1.4-10.75,4.69-20.98,9.86-30.7
		c5.17-9.71,11.88-18.2,20.12-25.46c8.24-7.26,17.86-13.02,28.85-17.26c10.99-4.24,22.95-6.22,35.88-5.94
		c12.18,0.28,22.68,2.5,31.52,6.65c8.83,4.15,15.97,9.69,21.42,16.62c5.44,6.93,9.16,14.88,11.15,23.84
		c1.99,8.96,2.29,18.39,0.89,28.29l-2.91,16.69H540.48c-0.22,4.91,0.48,9.46,2.1,13.65c1.62,4.2,3.96,7.85,7.03,10.96
		c3.07,3.11,6.87,5.59,11.4,7.43c4.53,1.84,9.7,2.81,15.52,2.9c9.16,0.28,17.81-1.11,25.94-4.17c8.14-3.06,15.33-7.43,21.58-13.09
		l19.88,21.36c-3.88,4.91-8.59,9.1-14.14,12.59c-5.55,3.49-11.53,6.37-17.94,8.63c-6.41,2.26-13.07,3.91-19.96,4.95
		C584.99,339.38,578.31,339.85,571.84,339.76z M589.46,212.71c-5.82-0.19-11.05,0.66-15.68,2.55c-4.63,1.89-8.76,4.43-12.37,7.64
		c-3.61,3.21-6.76,6.84-9.46,10.89c-2.69,4.06-5.07,8.16-7.11,12.31h71.28l0.81-3.54c0.75-4.15,0.65-8.02-0.32-11.6
		c-0.97-3.58-2.67-6.7-5.09-9.34c-2.42-2.64-5.5-4.74-9.21-6.3S594.31,212.9,589.46,212.71z"/>
	<path class="st0" d="M805.51,174.47c5.6,0.1,11.13,0.5,16.57,1.2c5.44,0.71,10.91,1.68,16.41,2.9l-11.96,39.19
		c-5.6-1.22-11.21-2.19-16.81-2.9c-5.6-0.71-11.31-1.11-17.13-1.2c-22.85-0.19-40.3,8.11-52.37,24.9l-18.27,92.1h-43.8l30.39-153.07
		h40.73l-4.53,25.18c3.88-4.15,8.03-7.97,12.45-11.46c4.42-3.49,9.16-6.48,14.22-8.98c5.06-2.5,10.43-4.43,16.08-5.8
		C793.15,175.15,799.15,174.47,805.51,174.47z"/>
	<path class="st1" d="M428.17,402.39c-0.54,4.13-1.7,7.87-3.47,11.21c-1.77,3.34-4.01,6.2-6.72,8.57s-5.82,4.18-9.32,5.44
		c-3.5,1.26-7.24,1.83-11.22,1.72c-3.22-0.08-6.07-0.63-8.56-1.66c-2.49-1.03-4.65-2.42-6.48-4.17c-1.82-1.75-3.33-3.79-4.52-6.14
		c-1.19-2.35-2.1-4.87-2.74-7.55c-0.63-2.69-0.99-5.49-1.08-8.4c-0.09-2.91,0.04-5.81,0.41-8.71l1.57-11.05
		c0.43-3.04,1.11-6.09,2.03-9.13c0.92-3.04,2.07-5.94,3.44-8.68c1.37-2.74,2.99-5.29,4.85-7.64c1.86-2.35,3.96-4.37,6.31-6.06
		c2.35-1.69,4.94-3.01,7.78-3.94c2.84-0.94,5.91-1.37,9.24-1.3c4.05,0.08,7.57,0.82,10.57,2.23c3,1.41,5.48,3.33,7.45,5.78
		c1.97,2.44,3.46,5.34,4.47,8.68c1.01,3.34,1.57,7.01,1.68,10.99l-14.74-0.06c0-1.99-0.14-3.87-0.41-5.64
		c-0.27-1.77-0.79-3.31-1.57-4.62c-0.78-1.31-1.85-2.38-3.22-3.18c-1.37-0.81-3.14-1.25-5.31-1.32c-2.06-0.07-3.88,0.23-5.47,0.93
		c-1.59,0.7-2.99,1.63-4.2,2.82c-1.21,1.18-2.26,2.58-3.14,4.2c-0.89,1.62-1.63,3.32-2.25,5.1c-0.61,1.78-1.12,3.6-1.52,5.44
		c-0.4,1.84-0.7,3.61-0.92,5.3l-1.52,11.21c-0.18,1.39-0.34,2.93-0.49,4.62c-0.14,1.69-0.21,3.4-0.19,5.13
		c0.02,1.73,0.17,3.42,0.46,5.07c0.29,1.65,0.79,3.13,1.52,4.42c0.72,1.3,1.7,2.35,2.93,3.16c1.23,0.81,2.8,1.25,4.71,1.32
		c2.17,0.11,4.1-0.17,5.8-0.85c1.7-0.68,3.16-1.63,4.39-2.87c1.23-1.24,2.24-2.73,3.03-4.48c0.79-1.75,1.39-3.67,1.79-5.78
		L428.17,402.39z"/>
	<path class="st1" d="M439.98,397.49c0.51-4.28,1.58-8.35,3.22-12.2c1.64-3.85,3.78-7.22,6.42-10.12c2.64-2.89,5.75-5.17,9.35-6.82
		c3.59-1.65,7.59-2.42,12-2.31c4.23,0.08,7.86,0.98,10.89,2.71c3.03,1.73,5.5,4.01,7.4,6.85c1.9,2.84,3.21,6.1,3.93,9.78
		c0.72,3.68,0.88,7.53,0.49,11.55l-0.16,1.24c-0.51,4.28-1.58,8.33-3.22,12.14c-1.64,3.81-3.78,7.15-6.42,10
		c-2.64,2.86-5.75,5.1-9.35,6.73c-3.6,1.63-7.58,2.4-11.95,2.28c-4.19-0.08-7.8-0.97-10.84-2.68c-3.03-1.71-5.5-3.96-7.4-6.76
		c-1.9-2.8-3.22-6.03-3.96-9.69c-0.74-3.66-0.91-7.5-0.51-11.52L439.98,397.49z M454.56,398.67c-0.18,1.88-0.25,3.86-0.22,5.95
		c0.04,2.09,0.35,4.02,0.95,5.8c0.6,1.78,1.55,3.29,2.87,4.51c1.32,1.22,3.15,1.87,5.5,1.94c2.46,0.08,4.58-0.46,6.37-1.61
		c1.79-1.15,3.29-2.63,4.5-4.45c1.21-1.82,2.15-3.85,2.82-6.09c0.67-2.24,1.15-4.42,1.44-6.57l0.11-1.18
		c0.11-1.24,0.19-2.55,0.24-3.92c0.05-1.37,0-2.72-0.16-4.06c-0.16-1.33-0.43-2.61-0.81-3.83c-0.38-1.22-0.92-2.3-1.63-3.24
		c-0.7-0.94-1.6-1.7-2.68-2.28c-1.08-0.58-2.4-0.91-3.96-0.99c-2.49-0.07-4.63,0.45-6.42,1.58s-3.29,2.61-4.5,4.45
		c-1.21,1.84-2.17,3.89-2.87,6.14c-0.7,2.25-1.18,4.47-1.44,6.65L454.56,398.67z"/>
	<path class="st1" d="M525.33,367.11l-0.98,8.57c2.31-2.93,4.98-5.29,7.99-7.07c3.02-1.78,6.42-2.64,10.21-2.56
		c3.4,0.08,6.2,0.81,8.43,2.2c2.22,1.39,3.96,3.23,5.23,5.52c1.26,2.29,2.09,4.89,2.49,7.81c0.4,2.91,0.43,5.93,0.11,9.04
		l-6.01,37.53h-14.69l5.96-37.36c0.18-1.77,0.19-3.37,0.03-4.82c-0.16-1.45-0.56-2.7-1.19-3.75c-0.63-1.05-1.54-1.88-2.71-2.48
		c-1.17-0.6-2.68-0.92-4.52-0.96c-2.42-0.04-4.59,0.48-6.5,1.55c-1.92,1.07-3.65,2.55-5.2,4.42l-7.32,43.39h-14.74l10.19-60.98
		L525.33,367.11z"/>
	<path class="st1" d="M606.61,352.24l-2.49,14.93h21.24l-1.95,11.55h-21.24l-4.12,26.26c-0.18,1.62-0.21,3.1-0.08,4.45
		c0.13,1.35,0.47,2.54,1.03,3.55c0.56,1.01,1.37,1.82,2.44,2.42c1.07,0.6,2.45,0.92,4.15,0.96c2.09,0.08,4.17-0.06,6.23-0.39
		c2.06-0.34,4.12-0.73,6.18-1.18l0.49,10.88c-1.3,0.75-2.68,1.37-4.15,1.86c-1.46,0.49-2.96,0.86-4.5,1.13
		c-1.54,0.26-3.08,0.44-4.63,0.54c-1.55,0.09-3.05,0.12-4.5,0.08c-3.29-0.04-6.11-0.65-8.48-1.83c-2.37-1.18-4.28-2.79-5.74-4.82
		s-2.47-4.42-3.03-7.19c-0.56-2.76-0.68-5.76-0.35-8.99l4.39-27.73h-13.01l1.95-11.55h13.01l2.49-14.93H606.61z"/>
	<path class="st1" d="M668.39,428.15c-0.29-0.98-0.46-1.93-0.51-2.85c-0.05-0.92-0.06-1.87-0.03-2.85c-2.28,2.22-4.76,3.92-7.45,5.1
		c-2.69,1.18-5.63,1.76-8.81,1.72c-2.46-0.04-4.8-0.48-7.02-1.32c-2.22-0.85-4.15-2.03-5.8-3.55c-1.64-1.52-2.92-3.37-3.82-5.55
		c-0.9-2.18-1.3-4.62-1.19-7.33c0.11-2.71,0.6-5.09,1.49-7.16c0.88-2.07,2.05-3.87,3.5-5.41c1.44-1.54,3.11-2.83,4.99-3.86
		c1.88-1.03,3.88-1.87,6.02-2.51c2.13-0.64,4.33-1.09,6.58-1.35c2.26-0.26,4.49-0.39,6.69-0.39l8.45,0.11l0.7-3.78
		c0.22-1.47,0.17-2.78-0.14-3.94c-0.31-1.16-0.83-2.15-1.57-2.96c-0.74-0.81-1.67-1.43-2.79-1.86c-1.12-0.43-2.38-0.67-3.79-0.7
		c-2.53-0.07-4.64,0.52-6.34,1.78c-1.7,1.26-2.8,3.18-3.31,5.78l-14.69,0.11c0.22-3.38,1.14-6.3,2.76-8.76
		c1.63-2.46,3.67-4.49,6.12-6.09c2.46-1.6,5.18-2.76,8.16-3.49c2.98-0.73,5.93-1.08,8.86-1.04c3.07,0.08,5.98,0.58,8.72,1.52
		c2.75,0.94,5.12,2.3,7.13,4.09c2.01,1.78,3.52,3.99,4.55,6.62c1.03,2.63,1.38,5.69,1.06,9.19l-4.06,26.21
		c-0.33,2.22-0.57,4.48-0.73,6.79c-0.16,2.31,0.14,4.56,0.89,6.73l-0.05,1.01H668.39z M655.44,417.21c2.56,0.08,4.98-0.47,7.23-1.63
		c2.26-1.16,4.2-2.76,5.83-4.79l1.84-10.54l-6.67-0.06c-1.63,0-3.27,0.17-4.93,0.51c-1.66,0.34-3.2,0.89-4.61,1.66
		c-1.41,0.77-2.6,1.79-3.58,3.07c-0.98,1.28-1.59,2.89-1.84,4.85c-0.14,1.16-0.07,2.18,0.22,3.04c0.29,0.86,0.74,1.58,1.35,2.14
		c0.61,0.56,1.36,1,2.25,1.3C653.42,417.06,654.39,417.21,655.44,417.21z"/>
	<path class="st1" d="M724.36,416.82c1.44,0.04,2.83-0.15,4.15-0.56c1.32-0.41,2.51-1.02,3.58-1.83c1.07-0.81,1.97-1.81,2.71-3.01
		c0.74-1.2,1.22-2.55,1.44-4.06l13.76-0.11c-0.18,3.46-1.07,6.57-2.66,9.33c-1.59,2.76-3.62,5.1-6.1,7.02
		c-2.47,1.92-5.24,3.37-8.29,4.37c-3.05,1-6.15,1.46-9.29,1.38c-4.23-0.08-7.85-0.96-10.86-2.65c-3.02-1.69-5.46-3.94-7.32-6.73
		c-1.86-2.8-3.15-6.03-3.87-9.69c-0.72-3.66-0.89-7.5-0.49-11.52l0.16-1.75c0.51-4.25,1.57-8.27,3.2-12.06
		c1.63-3.79,3.76-7.11,6.39-9.95c2.64-2.84,5.73-5.06,9.29-6.68c3.56-1.62,7.51-2.37,11.84-2.25c3.36,0.08,6.39,0.7,9.1,1.86
		c2.71,1.16,5.01,2.79,6.91,4.87c1.9,2.09,3.32,4.56,4.28,7.44c0.96,2.87,1.35,6.06,1.17,9.55l-13.82-0.06
		c0.11-1.5,0-2.92-0.33-4.25c-0.33-1.33-0.87-2.49-1.63-3.47c-0.76-0.98-1.72-1.76-2.87-2.34c-1.16-0.58-2.51-0.91-4.06-0.99
		c-2.49-0.07-4.62,0.43-6.37,1.52c-1.75,1.09-3.21,2.53-4.36,4.31c-1.16,1.78-2.06,3.78-2.71,5.97c-0.65,2.2-1.1,4.37-1.35,6.51
		l-0.22,1.69c-0.18,1.8-0.27,3.76-0.27,5.86c0,2.1,0.27,4.05,0.81,5.83c0.54,1.78,1.44,3.29,2.68,4.51
		C720.22,416.1,722.01,416.74,724.36,416.82z"/>
	<path class="st1" d="M802.02,352.24l-2.49,14.93h21.24l-1.95,11.55h-21.24l-4.12,26.26c-0.18,1.62-0.21,3.1-0.08,4.45
		c0.13,1.35,0.47,2.54,1.03,3.55c0.56,1.01,1.37,1.82,2.44,2.42c1.07,0.6,2.45,0.92,4.15,0.96c2.09,0.08,4.17-0.06,6.23-0.39
		c2.06-0.34,4.12-0.73,6.18-1.18l0.49,10.88c-1.3,0.75-2.68,1.37-4.15,1.86c-1.46,0.49-2.96,0.86-4.5,1.13
		c-1.54,0.26-3.08,0.44-4.63,0.54c-1.55,0.09-3.05,0.12-4.5,0.08c-3.29-0.04-6.11-0.65-8.48-1.83c-2.37-1.18-4.28-2.79-5.74-4.82
		c-1.46-2.03-2.47-4.42-3.03-7.19c-0.56-2.76-0.68-5.76-0.35-8.99l4.39-27.73h-13.01l1.95-11.55h13.01l2.49-14.93H802.02z"/>
	<path class="st1" d="M830.79,397.49c0.51-4.28,1.58-8.35,3.22-12.2c1.64-3.85,3.78-7.22,6.42-10.12c2.64-2.89,5.75-5.17,9.35-6.82
		c3.59-1.65,7.6-2.42,12-2.31c4.23,0.08,7.86,0.98,10.89,2.71c3.03,1.73,5.5,4.01,7.4,6.85c1.9,2.84,3.21,6.1,3.93,9.78
		c0.72,3.68,0.88,7.53,0.49,11.55l-0.16,1.24c-0.51,4.28-1.58,8.33-3.22,12.14c-1.64,3.81-3.78,7.15-6.42,10
		c-2.64,2.86-5.75,5.1-9.35,6.73c-3.59,1.63-7.58,2.4-11.95,2.28c-4.19-0.08-7.8-0.97-10.84-2.68c-3.03-1.71-5.5-3.96-7.4-6.76
		c-1.9-2.8-3.22-6.03-3.96-9.69c-0.74-3.66-0.91-7.5-0.51-11.52L830.79,397.49z M845.37,398.67c-0.18,1.88-0.25,3.86-0.22,5.95
		c0.04,2.09,0.35,4.02,0.95,5.8c0.6,1.78,1.55,3.29,2.87,4.51c1.32,1.22,3.15,1.87,5.5,1.94c2.46,0.08,4.58-0.46,6.37-1.61
		c1.79-1.15,3.29-2.63,4.5-4.45c1.21-1.82,2.15-3.85,2.82-6.09c0.67-2.24,1.15-4.42,1.44-6.57l0.11-1.18
		c0.11-1.24,0.19-2.55,0.24-3.92c0.05-1.37,0-2.72-0.16-4.06c-0.16-1.33-0.43-2.61-0.81-3.83c-0.38-1.22-0.92-2.3-1.63-3.24
		c-0.7-0.94-1.6-1.7-2.68-2.28c-1.08-0.58-2.4-0.91-3.96-0.99c-2.49-0.07-4.63,0.45-6.42,1.58c-1.79,1.13-3.29,2.61-4.5,4.45
		c-1.21,1.84-2.17,3.89-2.87,6.14c-0.7,2.25-1.18,4.47-1.44,6.65L845.37,398.67z"/>
</g>
<g>
	<path class="st0" d="M301.33,103.46l-51.8-65.52c-33.54,29.84-34.82,22.99-33.7,22.99c-90.16-1.21,18.89,29.72-134.49-10.72
		c42.07,118.83,32.87,48.85,33.66,269.77c0,55.43-49.51,77.91-86.46,57.84c-1.24-0.67-2.45,0.96-1.46,1.95
		c54.16,54.29,145.95,14.03,144.57-61.36c0,16.89-0.1-108.08-0.12-124.92c0-64.3,69.62-59.27,76.24-15.96
		c2.91-19.07,19.77-33.14,39.16-32.45c31.05,1.06,36.65,34.71,35.11,28.88C324.96,184.99,330.54,140.94,301.33,103.46z"/>
	<path class="st1" d="M214.03,160.99c9.08-3.08-28.07-8.51-29.82,20.83c-1.97,33.05,48.01,35.85,49.73,2.84
		c0.57-11.04-6.47-19.24-6.07-14.46c0.47,5.72-3.64,10.6-9.01,11.38C206.17,183.4,201.56,165.23,214.03,160.99z"/>
	<path class="st1" d="M305.46,170.2c0.48,5.79-3.71,10.61-9.01,11.38c-12.68,1.83-17.29-16.35-4.82-20.58
		c9.08-3.08-28.07-8.51-29.82,20.83c-1.97,33.05,48.01,35.85,49.73,2.84C312.11,173.6,305.08,165.46,305.46,170.2z"/>
	<path class="st0" d="M243.25,210.3c-28.79,15.26,21.38,63.52,26.65,51.21C278.43,241.57,268.43,196.95,243.25,210.3z"/>
	<path class="st1" d="M227.09,263.07c-20.69-15.68-46.11-0.49-46.09,21.79l0.03,33.38c0.97,52.75-41.45,95.78-94.02,95.78
		c-45.71,0-71.45-32.51-66.57-27.62C2.58,368.52,38.95,455.88,117,459C276.18,450.92,293.43,313.34,227.09,263.07z"/>
</g>
</svg>
