<svg xmlns="http://www.w3.org/2000/svg" width="1080" height="1080" viewBox="0 0 1080 1080" version="1.1">
	<path d="M 442.730 129.015 C 426.126 143.532, 405.160 159.379, 397.213 163.419 C 394.481 164.808, 389.833 165.154, 369.713 165.468 C 332.152 166.055, 317.927 169.101, 311.174 178 C 309.297 180.475, 306.802 182.874, 305.630 183.332 C 299.617 185.680, 267.497 178.567, 177.146 154.880 C 158.252 149.927, 142.561 146.106, 142.278 146.389 C 141.621 147.045, 153.388 179.389, 171.240 226 C 192.877 282.494, 197.027 296.193, 200.487 322.540 C 203.373 344.516, 203.925 387.749, 203.088 526 C 202.286 658.540, 202.243 660.642, 200.118 670.244 C 190.946 711.688, 165.934 741.238, 129.500 753.675 C 113.041 759.293, 93.201 760.497, 75.657 756.941 C 66.904 755.168, 61.889 753.452, 45.764 746.715 C 43.674 745.842, 42.742 745.858, 41.816 746.784 C 38.073 750.527, 69.711 773.928, 90.816 783.027 C 112.065 792.188, 130.520 795.516, 155.500 794.694 C 180.032 793.886, 198.062 789.476, 219.605 779.013 C 268.039 755.492, 300.218 710.070, 305.895 657.211 C 306.642 650.259, 307 605.946, 307 520.592 C 307 384.752, 306.954 386.094, 312.151 370 C 317.673 352.898, 329.965 336.519, 343.125 328.724 C 363.121 316.882, 388.809 316.434, 409.980 327.559 C 426.754 336.373, 438.988 351.420, 444.247 369.703 L 446.607 377.906 447.789 372.269 C 448.440 369.169, 450.869 362.777, 453.189 358.066 C 456.613 351.110, 459.106 347.805, 466.453 340.479 C 479.163 327.805, 490.328 322.228, 507.594 319.931 C 528.939 317.090, 550.917 325.149, 565.364 341.113 C 571.712 348.128, 579.191 361.021, 581.624 369.144 C 585.007 380.438, 587.483 373.026, 586.609 354.221 C 585.137 322.550, 572.144 283.680, 553.775 256 C 549.549 249.631, 454.026 127.727, 450.184 123.799 C 449.807 123.413, 446.452 125.761, 442.730 129.015 M 360.223 346.530 C 356.220 347.894, 351.270 350.086, 349.223 351.401 C 340.560 356.967, 333.357 367.145, 331.076 377.042 C 329.505 383.862, 329.781 397.899, 331.609 404.068 C 338.081 425.915, 361.927 438.945, 386.201 433.898 C 398.372 431.368, 410.684 422.430, 415.779 412.427 C 422.901 398.446, 422.734 379.986, 415.372 367.250 C 412.532 362.337, 410.003 361.631, 409.994 365.750 C 409.960 382.959, 389.738 392.613, 377.661 381.186 C 367.421 371.498, 370.126 355.305, 382.951 349.522 C 390.580 346.082, 387.589 344.019, 375 344.039 C 369.666 344.048, 365.399 344.767, 360.223 346.530 M 505.265 345.542 C 484.137 351.231, 471.976 367.476, 472.012 389.960 C 472.047 412.150, 484.863 428.455, 506.231 433.492 C 517.469 436.142, 530.696 434.746, 540.174 429.911 C 545.188 427.353, 553.492 419.748, 556.456 415 C 564.800 401.631, 565.686 384.038, 558.724 370 C 554.861 362.211, 552.012 360.808, 551.978 366.677 C 551.931 374.873, 544.762 384.204, 537.459 385.574 C 524.494 388.006, 514 379.744, 514 367.105 C 514 358.185, 516.935 353.617, 525.449 349.283 C 530.069 346.932, 530.272 346.672, 528.508 345.382 C 526.022 343.564, 512.256 343.659, 505.265 345.542 M 448.232 435.024 C 441.936 436.319, 432.323 441.805, 428.478 446.296 C 417.847 458.716, 420.452 477.984, 435.731 499.956 C 442.720 510.005, 449.790 517.678, 458.500 524.664 C 468.922 533.024, 475.418 536.223, 481.137 535.813 C 485.042 535.533, 485.672 535.124, 487.189 531.893 C 492.878 519.767, 493.585 490.198, 488.613 472.279 C 481.079 445.127, 466.135 431.340, 448.232 435.024 M 905.105 486.485 C 868.758 494.717, 841.886 517.303, 822.994 555.500 C 810.497 580.766, 806.022 596.739, 799.885 638 C 793.249 682.613, 793.442 708.038, 800.603 732.765 C 806.363 752.650, 814.116 766.069, 826.908 778.290 C 844.458 795.057, 871.012 802.637, 899.596 799.039 C 929.255 795.306, 954.263 781.466, 972.534 758.674 C 983.861 744.543, 993.587 722.064, 996.515 703.250 L 997.176 699 969.749 699 L 942.322 699 940.119 707.234 C 932.525 735.604, 914.822 751.110, 889.915 751.205 C 878.263 751.250, 871.508 749.162, 865.326 743.604 C 859.607 738.461, 855.895 732.083, 853.336 723 C 851.810 717.582, 851.514 712.922, 851.559 695 C 851.608 675.354, 851.978 670.870, 855.850 643 C 861.995 598.760, 866.191 581.824, 875.173 565 C 880.870 554.331, 885.553 548.533, 892.990 542.943 C 902.749 535.607, 909.243 533.497, 922 533.515 C 934.343 533.532, 940.087 535.168, 947.414 540.754 C 956.414 547.614, 961.092 559.352, 962.559 578.750 L 963.258 588 990.777 588 L 1018.295 588 1017.616 578.336 C 1015.319 545.667, 1002.227 517.175, 982.736 502.431 C 974.987 496.570, 962.540 490.492, 952.862 487.844 C 942.979 485.139, 914.610 484.332, 905.105 486.485 M 540.262 499.750 C 540.768 502.913, 551.164 569.400, 563.364 647.500 L 585.547 789.500 618.023 789.761 L 650.500 790.023 716 662.813 C 752.025 592.848, 786.297 526.243, 792.161 514.802 L 802.822 494 766.661 494.029 L 730.500 494.058 685.546 567.491 C 660.821 607.880, 640.501 640.829, 640.390 640.712 C 640.280 640.596, 633.146 608.325, 624.537 569 C 615.929 529.675, 608.656 496.712, 608.375 495.750 C 607.902 494.127, 605.373 494, 573.604 494 L 539.343 494 540.262 499.750 M 362.698 525.096 C 347.454 528.683, 333.273 541.608, 326.854 557.764 C 324.631 563.362, 324.561 564.653, 323.936 611.500 C 323.356 654.941, 323.090 660.570, 321.132 670.767 C 314.613 704.725, 298.223 736.353, 274.760 760.249 C 226.625 809.275, 153.640 825.131, 89.729 800.449 C 68.368 792.199, 47.016 778.810, 32.713 764.696 C 23.781 755.882, 21.353 755.183, 21.743 761.539 C 22.274 770.209, 36.640 795.051, 51.503 813 C 73.832 839.965, 100.973 861.483, 130.346 875.507 C 165.977 892.520, 195.736 897.326, 236 892.570 C 302.876 884.669, 358.693 863.451, 398.995 830.608 C 437.464 799.259, 461.685 760.171, 471.712 713.256 C 474.252 701.372, 474.441 698.825, 474.469 676 C 474.496 654.327, 474.235 650.192, 472.204 640.166 C 468.835 623.541, 463.888 609.288, 456.004 593.500 C 447.469 576.406, 438.529 563.752, 426 551.029 C 406.019 530.740, 393.063 523.889, 375.068 524.100 C 370.356 524.156, 364.789 524.603, 362.698 525.096" stroke="none" fill="black" fill-rule="evenodd"/>
</svg>